<svg width="16" height="8" viewBox="0 0 16 8" fill="none" xmlns="http://www.w3.org/2000/svg">
<path d="M15.8167 3.12644C15.8165 3.12627 15.8163 3.12607 15.8161 3.1259L12.5504 0.165766C12.3057 -0.0559882 11.91 -0.055163 11.6665 0.167701C11.423 0.390536 11.4239 0.750961 11.6686 0.972743L13.8612 2.96013H0.625C0.279812 2.96013 0 3.21499 0 3.52939C0 3.84379 0.279812 4.09864 0.625 4.09864H13.8611L11.6686 6.08603C11.4239 6.30781 11.423 6.66824 11.6665 6.89107C11.91 7.11397 12.3058 7.11473 12.5504 6.89301L15.8161 3.93288C15.8163 3.93271 15.8165 3.93251 15.8167 3.93234C16.0615 3.70981 16.0607 3.34822 15.8167 3.12644Z" fill="#070D18"/>
</svg>